<?xml version="1.0" standalone="no"?>
<!DOCTYPE svg PUBLIC "-//W3C//DTD SVG 20010904//EN"
 "http://www.w3.org/TR/2001/REC-SVG-20010904/DTD/svg10.dtd">
<svg version="1.0" xmlns="http://www.w3.org/2000/svg"
 width="512.000000pt" height="512.000000pt" viewBox="0 0 512.000000 512.000000"
 preserveAspectRatio="xMidYMid meet">
<metadata>
Created by potrace 1.14, written by Peter Selinger 2001-2017
</metadata>
<g transform="translate(0.000000,512.000000) scale(0.100000,-0.100000)"
fill="#000000" stroke="none">
<path d="M2390 3848 c-137 -22 -296 -78 -395 -141 -93 -58 -225 -181 -256
-236 -11 -20 -33 -58 -50 -85 -60 -97 -93 -241 -92 -406 1 -198 130 -429 304
-544 93 -61 285 -133 629 -236 230 -68 249 -76 287 -113 70 -67 65 -147 -14
-216 -25 -23 -59 -45 -76 -49 -63 -16 -258 -1 -306 24 -14 8 -34 14 -43 14
-10 0 -18 4 -18 9 0 13 -94 57 -152 73 -27 7 -48 16 -48 20 0 4 -9 8 -19 8
-10 0 -21 7 -25 15 -3 8 -12 15 -21 15 -8 0 -15 5 -15 10 0 6 -8 10 -18 10
-10 0 -22 4 -27 9 -13 13 -120 33 -168 31 -76 -2 -169 -68 -216 -153 -28 -51
-30 -185 -2 -249 36 -84 118 -184 212 -260 83 -66 277 -165 363 -183 10 -2 25
-10 34 -17 13 -11 14 -11 7 2 -7 12 -6 13 6 3 8 -6 28 -13 44 -15 17 -1 36
-10 43 -18 8 -8 11 -9 7 -2 -7 14 11 17 19 3 4 -5 14 -8 24 -6 9 1 23 -2 30
-8 8 -6 12 -5 12 4 0 8 5 6 13 -6 11 -14 16 -15 22 -5 6 9 4 11 -5 5 -9 -6
-11 -4 -6 4 6 9 13 8 28 -5 11 -11 22 -14 26 -9 9 13 42 16 42 4 0 -5 -5 -9
-12 -9 -6 0 -9 -3 -6 -6 3 -3 16 1 27 8 18 11 23 11 30 -1 6 -9 10 -10 16 -2
5 9 10 9 21 0 11 -9 17 -9 29 1 12 10 15 10 15 -1 0 -11 2 -11 10 1 9 13 10
13 10 0 0 -13 1 -13 10 0 9 13 10 13 10 0 0 -12 2 -13 9 -1 6 9 10 10 12 2 3
-7 12 -9 22 -6 9 4 14 12 11 17 -4 6 2 5 14 -1 16 -9 24 -8 36 5 12 12 16 12
16 2 0 -8 4 -7 11 5 5 9 15 17 22 17 7 0 6 -4 -3 -10 -8 -5 -10 -10 -5 -10 6
0 16 5 23 12 7 7 12 8 12 2 0 -5 5 -2 10 6 8 13 10 13 10 1 0 -11 4 -10 16 5
8 10 13 13 9 6 -3 -6 -2 -12 3 -12 6 0 13 7 16 16 5 13 9 14 21 4 10 -9 15 -9
15 -1 0 6 7 11 15 11 8 0 29 8 47 18 18 10 39 17 46 15 6 -3 12 1 12 8 0 7 3
10 6 7 3 -4 20 0 39 7 18 8 36 11 40 7 5 -4 5 -1 0 7 -6 11 -3 13 12 9 14 -4
20 -1 19 10 0 8 5 16 12 18 7 1 8 0 2 -3 -5 -2 -7 -9 -4 -15 3 -5 13 0 21 11
8 12 19 19 24 15 5 -3 9 -2 8 3 -3 17 1 33 9 32 24 -4 42 2 36 13 -5 8 -2 9 9
5 17 -7 50 29 41 45 -3 4 3 5 12 1 11 -4 15 -3 10 5 -3 6 3 13 14 17 11 4 18
10 15 15 -3 4 2 11 11 14 9 4 14 9 10 13 -3 3 3 13 14 20 11 8 18 19 15 24 -4
5 1 9 9 9 9 0 15 4 14 9 -2 5 6 17 17 26 11 9 14 14 8 10 -7 -3 -13 -1 -13 4
0 6 3 11 8 11 4 0 16 12 26 27 13 17 14 24 5 19 -8 -4 -6 -1 4 7 10 9 18 17
17 19 -1 1 4 17 11 33 19 47 20 58 26 258 5 185 5 188 -16 194 -19 5 -21 13
-21 69 0 57 -2 64 -20 64 -17 0 -20 7 -20 40 0 33 -3 40 -20 40 -16 0 -20 7
-20 30 0 23 -4 30 -20 30 -15 0 -20 7 -20 25 0 18 -5 25 -20 25 -13 0 -20 7
-20 20 0 13 -7 20 -19 20 -10 0 -21 9 -24 20 -3 11 -12 20 -21 20 -9 0 -16 5
-16 10 0 6 -18 18 -40 27 -22 10 -40 21 -40 25 0 5 -6 8 -14 8 -8 0 -40 14
-71 30 -31 17 -70 30 -85 30 -16 0 -31 4 -34 9 -3 5 -47 19 -98 31 -50 13
-103 29 -117 37 -14 7 -33 13 -42 13 -8 0 -19 4 -25 9 -5 4 -67 23 -139 42
-71 18 -131 37 -133 41 -2 4 -12 8 -23 8 -10 0 -19 5 -19 10 0 6 -9 10 -20 10
-11 0 -20 7 -20 15 0 8 -9 15 -20 15 -16 0 -20 7 -20 31 0 22 -5 32 -20 36
-15 4 -20 14 -20 39 0 22 5 34 14 34 15 0 26 21 26 51 0 12 7 19 20 19 11 0
20 6 20 13 0 22 59 39 138 39 104 0 251 -40 407 -112 151 -69 282 -111 331
-104 49 7 124 28 124 36 0 4 7 8 15 8 9 0 18 6 21 14 3 8 14 16 25 19 11 3 19
14 19 25 0 11 9 22 20 25 16 4 20 14 20 45 0 31 4 41 20 45 16 4 20 14 20 45
0 50 -8 72 -26 72 -10 0 -14 15 -14 56 0 47 -3 57 -20 61 -14 4 -20 14 -20 34
0 22 -5 29 -20 29 -15 0 -20 7 -20 25 0 18 -5 25 -20 25 -13 0 -20 7 -20 20 0
13 -7 20 -20 20 -13 0 -20 7 -20 20 0 13 -7 20 -20 20 -11 0 -20 7 -20 15 0 8
-9 15 -20 15 -11 0 -20 5 -20 10 0 6 -9 10 -20 10 -11 0 -20 7 -20 15 0 8 -9
15 -20 15 -11 0 -20 4 -20 9 0 11 -120 71 -142 71 -8 0 -18 4 -24 9 -5 6 -40
15 -79 21 -38 6 -74 15 -80 19 -16 13 -212 34 -319 35 -54 1 -147 -7 -206 -16z
m991 -2461 c-10 -9 -11 -8 -5 6 3 10 9 15 12 12 3 -3 0 -11 -7 -18z"/>
</g>
</svg>
